# xmcd
#
# Track frame offsets:
#	150
#	14213
#	29304
#	48242
#	61758
#	75320
#	89270
#	102185
#	117950
#	133355
#	152089
#
# Disc length: 2213 seconds
#
# Revision: 1
# Processed by: cddbd v1.5.1PL2 Copyright (c) Steve Scherf et al.
# Submitted via: audiograbber 1.83.01
#
DISCID=8708a30b
DTITLE=Patricia Ryan - Patricia Ryan
DYEAR=2006
DGENRE=Country
TTITLE0=I Want To Be That Song
TTITLE1=Time To Time
TTITLE2=Maybe I Can Make Up Your Mind
TTITLE3=Memphis
TTITLE4=Leave
TTITLE5=Not As Much As I Like You
TTITLE6=I Don't Play That Game Anymore
TTITLE7=Way To My Heart
TTITLE8=That Girl
TTITLE9=L.O.V.E.
TTITLE10=I Believe
EXTD=www.patriciaryan-music.com
EXTT0=
EXTT1=
EXTT2=
EXTT3=
EXTT4=
EXTT5=
EXTT6=
EXTT7=
EXTT8=
EXTT9=
EXTT10=
PLAYORDER=
